<svg width="132" height="30" viewBox="0 0 132 30" fill="none" xmlns="http://www.w3.org/2000/svg">
<g clip-path="url(#clip0_2245_3875)">
<path fill-rule="evenodd" clip-rule="evenodd" d="M11.25 21C10.2554 21 9.30161 20.6049 8.59835 19.9016C7.89509 19.1984 7.5 18.2446 7.5 17.25V0H0V17.25C0 23.463 5.037 28.5 11.25 28.5H19.5V21H11.25ZM33.75 7.5C32.8636 7.5 31.9858 7.67459 31.1669 8.01381C30.3479 8.35303 29.6038 8.85023 28.977 9.47703C28.3502 10.1038 27.853 10.8479 27.5138 11.6669C27.1746 12.4858 27 13.3636 27 14.25C27 15.1364 27.1746 16.0142 27.5138 16.8331C27.853 17.6521 28.3502 18.3962 28.977 19.023C29.6038 19.6498 30.3479 20.147 31.1669 20.4862C31.9858 20.8254 32.8636 21 33.75 21C35.5402 21 37.2571 20.2888 38.523 19.023C39.7888 17.7571 40.5 16.0402 40.5 14.25C40.5 12.4598 39.7888 10.7429 38.523 9.47703C37.2571 8.21116 35.5402 7.5 33.75 7.5ZM19.5 14.25C19.5 6.38025 25.8802 0 33.75 0C41.6198 0 48 6.38025 48 14.25C48 22.1198 41.6198 28.5 33.75 28.5C25.8802 28.5 19.5 22.1198 19.5 14.25ZM114.75 7.5C112.96 7.5 111.243 8.21116 109.977 9.47703C108.711 10.7429 108 12.4598 108 14.25C108 16.0402 108.711 17.7571 109.977 19.023C111.243 20.2888 112.96 21 114.75 21C116.54 21 118.257 20.2888 119.523 19.023C120.789 17.7571 121.5 16.0402 121.5 14.25C121.5 12.4598 120.789 10.7429 119.523 9.47703C118.257 8.21116 116.54 7.5 114.75 7.5ZM100.5 14.25C100.5 6.38025 106.88 0 114.75 0C122.62 0 129 6.38025 129 14.25C129 22.1198 122.62 28.5 114.75 28.5C106.88 28.5 100.5 22.1198 100.5 14.25ZM63.75 0C55.8802 0 49.5 6.38025 49.5 14.25C49.5 22.1198 55.8802 28.5 63.75 28.5H84.75C86.2268 28.5 87.651 28.275 88.9905 27.858L93 30L97.326 21.897C98.4249 19.8343 98.9998 17.533 99 15.1957V14.25C99 6.38025 92.6198 0 84.75 0H63.75ZM91.5 14.25C91.5 12.4598 90.7888 10.7429 89.523 9.47703C88.2571 8.21116 86.5402 7.5 84.75 7.5H63.75C62.8636 7.5 61.9858 7.67459 61.1669 8.01381C60.3479 8.35303 59.6038 8.85023 58.977 9.47703C58.3502 10.1038 57.853 10.8479 57.5138 11.6669C57.1746 12.4858 57 13.3636 57 14.25C57 15.1364 57.1746 16.0142 57.5138 16.8331C57.853 17.6521 58.3502 18.3962 58.977 19.023C59.6038 19.6498 60.3479 20.147 61.1669 20.4862C61.9858 20.8254 62.8636 21 63.75 21H84.75C86.5312 21.0001 88.2401 20.2961 89.5045 19.0416C90.7689 17.787 91.4861 16.0836 91.5 14.3025V14.25Z" fill="white"/>
<path d="M132 15.375C132 15.8723 131.802 16.3492 131.451 16.7008C131.099 17.0525 130.622 17.25 130.125 17.25C129.628 17.25 129.151 17.0525 128.799 16.7008C128.448 16.3492 128.25 15.8723 128.25 15.375C128.25 14.8777 128.448 14.4008 128.799 14.0492C129.151 13.6975 129.628 13.5 130.125 13.5C130.622 13.5 131.099 13.6975 131.451 14.0492C131.802 14.4008 132 14.8777 132 15.375Z" fill="white"/>
</g>
<defs>
<clipPath id="clip0_2245_3875">
<rect width="132" height="30" fill="white"/>
</clipPath>
</defs>
</svg>
