<svg width="303" height="142" viewBox="0 0 303 142" fill="none" xmlns="http://www.w3.org/2000/svg">
<g opacity="0.5">
<rect y="35" width="72" height="72" rx="36" fill="white" fill-opacity="0.2"/>
<path fill-rule="evenodd" clip-rule="evenodd" d="M29.4538 62.4286C29.4538 60.7236 30.1435 59.0885 31.3712 57.8829C32.5988 56.6773 34.2639 56 36 56C37.7361 56 39.4012 56.6773 40.6288 57.8829C41.8565 59.0885 42.5462 60.7236 42.5462 62.4286C42.5462 64.1335 41.8565 65.7687 40.6288 66.9742C39.4012 68.1798 37.7361 68.8571 36 68.8571C34.2639 68.8571 32.5988 68.1798 31.3712 66.9742C30.1435 65.7687 29.4538 64.1335 29.4538 62.4286ZM24.0002 82.5785C24.0492 79.4849 25.3351 76.5343 27.5801 74.3637C29.8252 72.193 32.8494 70.9763 36 70.9763C39.1506 70.9763 42.1748 72.193 44.4199 74.3637C46.6649 76.5343 47.9508 79.4849 47.9998 82.5785C48.0036 82.7868 47.9455 82.9916 47.8326 83.168C47.7197 83.3443 47.5569 83.4845 47.3641 83.5714C43.7989 85.1767 39.9221 86.0052 36 86C31.9472 86 28.0966 85.1314 24.6359 83.5714C24.4431 83.4845 24.2803 83.3443 24.1674 83.168C24.0545 82.9916 23.9964 82.7868 24.0002 82.5785Z" fill="#BCA0FA"/>
</g>
<rect x="82.5" y="0.5" width="138" height="141" rx="69" fill="white" fill-opacity="0.22"/>
<rect x="82.5" y="0.5" width="138" height="141" rx="69" stroke="#6145A2"/>
<g filter="url(#filter0_d_2524_4494)">
<rect x="112" y="30" width="79" height="82" rx="39.5" fill="#8B5CF6"/>
<path d="M151.5 71.4688C155.436 71.4688 159.216 73.0375 162.022 75.8389C164.829 78.6404 166.439 82.4498 166.5 86.4453V86.4473C166.503 86.629 166.453 86.807 166.358 86.96C166.287 87.0747 166.193 87.1716 166.083 87.2441L165.968 87.3086C161.429 89.4182 156.494 90.5068 151.501 90.5H151.5C146.34 90.5 141.438 89.3585 137.032 87.3086C136.872 87.2341 136.737 87.113 136.642 86.96C136.547 86.807 136.497 86.629 136.5 86.4473V86.4453C136.561 82.4498 138.171 78.6404 140.978 75.8389C143.784 73.0375 147.564 71.4688 151.5 71.4688ZM151.5 51.5C153.608 51.5 155.631 52.3485 157.123 53.8613C158.616 55.3745 159.455 57.4285 159.455 59.5713C159.455 61.7141 158.616 63.7681 157.123 65.2812C155.631 66.7942 153.608 67.6426 151.5 67.6426C149.392 67.6426 147.369 66.7942 145.877 65.2812C144.384 63.7681 143.545 61.7141 143.545 59.5713C143.545 57.4285 144.384 55.3745 145.877 53.8613C147.369 52.3485 149.392 51.5 151.5 51.5Z" fill="white" stroke="white"/>
</g>
<g opacity="0.5">
<rect x="231" y="35" width="72" height="72" rx="36" fill="white" fill-opacity="0.2"/>
<path fill-rule="evenodd" clip-rule="evenodd" d="M260.454 62.4286C260.454 60.7236 261.144 59.0885 262.371 57.8829C263.599 56.6773 265.264 56 267 56C268.736 56 270.401 56.6773 271.629 57.8829C272.856 59.0885 273.546 60.7236 273.546 62.4286C273.546 64.1335 272.856 65.7687 271.629 66.9742C270.401 68.1798 268.736 68.8571 267 68.8571C265.264 68.8571 263.599 68.1798 262.371 66.9742C261.144 65.7687 260.454 64.1335 260.454 62.4286ZM255 82.5785C255.049 79.4849 256.335 76.5343 258.58 74.3637C260.825 72.193 263.849 70.9763 267 70.9763C270.151 70.9763 273.175 72.193 275.42 74.3637C277.665 76.5343 278.951 79.4849 279 82.5785C279.004 82.7868 278.945 82.9916 278.833 83.168C278.72 83.3443 278.557 83.4845 278.364 83.5714C274.799 85.1767 270.922 86.0052 267 86C262.947 86 259.097 85.1314 255.636 83.5714C255.443 83.4845 255.28 83.3443 255.167 83.168C255.055 82.9916 254.996 82.7868 255 82.5785Z" fill="#BCA0FA"/>
</g>
<defs>
<filter id="filter0_d_2524_4494" x="100" y="18" width="103" height="106" filterUnits="userSpaceOnUse" color-interpolation-filters="sRGB">
<feFlood flood-opacity="0" result="BackgroundImageFix"/>
<feColorMatrix in="SourceAlpha" type="matrix" values="0 0 0 0 0 0 0 0 0 0 0 0 0 0 0 0 0 0 127 0" result="hardAlpha"/>
<feOffset/>
<feGaussianBlur stdDeviation="6"/>
<feComposite in2="hardAlpha" operator="out"/>
<feColorMatrix type="matrix" values="0 0 0 0 1 0 0 0 0 1 0 0 0 0 1 0 0 0 0.25 0"/>
<feBlend mode="normal" in2="BackgroundImageFix" result="effect1_dropShadow_2524_4494"/>
<feBlend mode="normal" in="SourceGraphic" in2="effect1_dropShadow_2524_4494" result="shape"/>
</filter>
</defs>
</svg>
