<svg width="27" height="30" viewBox="0 0 27 30" fill="none" xmlns="http://www.w3.org/2000/svg">
<path d="M0 30V21.6667C0 20.75 0.326389 19.9653 0.979167 19.3125C1.63194 18.6597 2.41667 18.3333 3.33333 18.3333H23.3333C24.25 18.3333 25.0347 18.6597 25.6875 19.3125C26.3403 19.9653 26.6667 20.75 26.6667 21.6667V30H0ZM8.33333 16.6667C6.02778 16.6667 4.0625 15.8542 2.4375 14.2292C0.8125 12.6042 0 10.6389 0 8.33333C0 6.02778 0.8125 4.0625 2.4375 2.4375C4.0625 0.8125 6.02778 0 8.33333 0H18.3333C20.6389 0 22.6042 0.8125 24.2292 2.4375C25.8542 4.0625 26.6667 6.02778 26.6667 8.33333C26.6667 10.6389 25.8542 12.6042 24.2292 14.2292C22.6042 15.8542 20.6389 16.6667 18.3333 16.6667H8.33333ZM8.33333 10C8.80556 10 9.20139 9.84028 9.52083 9.52083C9.84028 9.20139 10 8.80556 10 8.33333C10 7.86111 9.84028 7.46528 9.52083 7.14583C9.20139 6.82639 8.80556 6.66667 8.33333 6.66667C7.86111 6.66667 7.46528 6.82639 7.14583 7.14583C6.82639 7.46528 6.66667 7.86111 6.66667 8.33333C6.66667 8.80556 6.82639 9.20139 7.14583 9.52083C7.46528 9.84028 7.86111 10 8.33333 10ZM18.3333 10C18.8056 10 19.2014 9.84028 19.5208 9.52083C19.8403 9.20139 20 8.80556 20 8.33333C20 7.86111 19.8403 7.46528 19.5208 7.14583C19.2014 6.82639 18.8056 6.66667 18.3333 6.66667C17.8611 6.66667 17.4653 6.82639 17.1458 7.14583C16.8264 7.46528 16.6667 7.86111 16.6667 8.33333C16.6667 8.80556 16.8264 9.20139 17.1458 9.52083C17.4653 9.84028 17.8611 10 18.3333 10Z" fill="#8B5CF6"/>
</svg>
