<svg width="30" height="30" viewBox="0 0 30 30" fill="none" xmlns="http://www.w3.org/2000/svg">
<path d="M0.417311 12.435L6.79079 6.06151C7.14487 5.70743 7.56218 5.45452 8.04272 5.30277C8.52326 5.15102 9.01645 5.12573 9.52228 5.22689L11.495 5.6442C10.1293 7.26287 9.05439 8.72978 8.27035 10.0449C7.48631 11.3601 6.72756 12.9535 5.99411 14.825L0.417311 12.435ZM8.19447 15.8873C8.77618 14.0663 9.56654 12.3465 10.5656 10.7278C11.5646 9.10915 12.7723 7.59166 14.1886 6.17533C16.4142 3.94967 18.956 2.28675 21.814 1.18656C24.6719 0.0863781 27.3402 -0.248735 29.8188 0.181222C30.2487 2.6598 29.9199 5.32806 28.8324 8.18601C27.7449 11.044 26.0883 13.5858 23.8626 15.8114C22.4716 17.2025 20.9541 18.4101 19.3101 19.4344C17.6662 20.4587 15.9337 21.2618 14.1127 21.8435L8.19447 15.8873ZM18.6652 11.3348C19.2469 11.9165 19.9614 12.2074 20.8087 12.2074C21.6559 12.2074 22.3704 11.9165 22.9521 11.3348C23.5338 10.7531 23.8247 10.0386 23.8247 9.19135C23.8247 8.34408 23.5338 7.62959 22.9521 7.04789C22.3704 6.46618 21.6559 6.17533 20.8087 6.17533C19.9614 6.17533 19.2469 6.46618 18.6652 7.04789C18.0835 7.62959 17.7926 8.34408 17.7926 9.19135C17.7926 10.0386 18.0835 10.7531 18.6652 11.3348ZM17.6029 29.5827L15.175 24.0059C17.0465 23.2724 18.6462 22.5137 19.974 21.7297C21.3018 20.9456 22.7751 19.8707 24.3937 18.505L24.7731 20.4777C24.8743 20.9835 24.849 21.4831 24.6972 21.9762C24.5455 22.4694 24.2926 22.8931 23.9385 23.2471L17.6029 29.5827ZM2.8453 20.7433C3.73051 19.8581 4.8054 19.4091 6.06998 19.3965C7.33456 19.3839 8.40945 19.8201 9.29466 20.7053C10.1799 21.5905 10.6225 22.6654 10.6225 23.93C10.6225 25.1946 10.1799 26.2695 9.29466 27.1547C8.66237 27.787 7.60644 28.3308 6.12689 28.786C4.64733 29.2413 2.60503 29.6459 0 30C0.354082 27.395 0.758748 25.359 1.214 23.8921C1.66924 22.4252 2.21301 21.3756 2.8453 20.7433Z" fill="#8B5CF6"/>
</svg>
