<svg width="42" height="30" viewBox="0 0 42 30" fill="none" xmlns="http://www.w3.org/2000/svg">
<path d="M18.75 30H10.3125C7.46875 30 5.03906 29.0156 3.02344 27.0469C1.00781 25.0781 0 22.6719 0 19.8281C0 17.3906 0.734375 15.2188 2.20312 13.3125C3.67188 11.4062 5.59375 10.1875 7.96875 9.65625C8.75 6.78125 10.3125 4.45312 12.6562 2.67188C15 0.890625 17.6562 0 20.625 0C24.2812 0 27.3828 1.27344 29.9297 3.82031C32.4766 6.36719 33.75 9.46875 33.75 13.125C35.9062 13.375 37.6953 14.3047 39.1172 15.9141C40.5391 17.5234 41.25 19.4062 41.25 21.5625C41.25 23.9062 40.4297 25.8984 38.7891 27.5391C37.1484 29.1797 35.1562 30 32.8125 30H22.5V16.5938L25.5 19.5L28.125 16.875L20.625 9.375L13.125 16.875L15.75 19.5L18.75 16.5938V30Z" fill="#8B5CF6"/>
</svg>
