<svg width="38" height="30" viewBox="0 0 38 30" fill="none" xmlns="http://www.w3.org/2000/svg">
<path d="M3.75 30C2.71875 30 1.83594 29.6328 1.10156 28.8984C0.367188 28.1641 0 27.2812 0 26.25V3.75C0 2.71875 0.367188 1.83594 1.10156 1.10156C1.83594 0.367188 2.71875 0 3.75 0H33.75C34.7812 0 35.6641 0.367188 36.3984 1.10156C37.1328 1.83594 37.5 2.71875 37.5 3.75V26.25C37.5 27.2812 37.1328 28.1641 36.3984 28.8984C35.6641 29.6328 34.7812 30 33.75 30H3.75ZM3.75 15H33.75V7.5H3.75V15Z" fill="#8B5CF6"/>
</svg>
