<svg width="31" height="30" viewBox="0 0 31 30" fill="none" xmlns="http://www.w3.org/2000/svg">
<path d="M27.2954 30L18.1831 20.8877L21.6782 17.3925L30.7906 26.5049L27.2954 30ZM4.32732 30L0.832178 26.5049L12.3162 15.0208L9.48682 12.1914L8.32178 13.3565L6.19972 11.2344V14.6463L5.03467 15.8114L0 10.7767L1.16505 9.61165H4.57698L2.49653 7.53121L8.40499 1.62275C8.95978 1.06796 9.55617 0.665742 10.1942 0.416089C10.8322 0.166436 11.484 0.0416089 12.1498 0.0416089C12.8155 0.0416089 13.4674 0.166436 14.1054 0.416089C14.7434 0.665742 15.3398 1.06796 15.8946 1.62275L12.0666 5.45076L14.147 7.53121L12.982 8.69626L15.8114 11.5257L19.5562 7.78086C19.4452 7.47573 19.3551 7.15673 19.2857 6.82386C19.2164 6.49098 19.1817 6.15811 19.1817 5.82524C19.1817 4.18863 19.7434 2.8086 20.8669 1.68516C21.9903 0.56172 23.3703 0 25.0069 0C25.423 0 25.8183 0.0416089 26.1928 0.124827C26.5673 0.208044 26.9487 0.332871 27.337 0.499307L23.2178 4.61859L26.2136 7.61442L30.3329 3.49515C30.527 3.8835 30.6588 4.26491 30.7282 4.63939C30.7975 5.01387 30.8322 5.40915 30.8322 5.82524C30.8322 7.46186 30.2705 8.84189 29.147 9.96533C28.0236 11.0888 26.6436 11.6505 25.0069 11.6505C24.6741 11.6505 24.3412 11.6227 24.0083 11.5673C23.6755 11.5118 23.3564 11.4147 23.0513 11.276L4.32732 30Z" fill="#8B5CF6"/>
</svg>
