<svg width="23" height="30" viewBox="0 0 23 30" fill="none" xmlns="http://www.w3.org/2000/svg">
<path d="M2.85714 30C2.07143 30 1.39881 29.7202 0.839286 29.1607C0.279762 28.6012 0 27.9286 0 27.1429V12.8571C0 12.0714 0.279762 11.3988 0.839286 10.8393C1.39881 10.2798 2.07143 10 2.85714 10H4.28571V7.14286C4.28571 5.16667 4.98214 3.48214 6.375 2.08929C7.76786 0.696429 9.45238 0 11.4286 0C13.4048 0 15.0893 0.696429 16.4821 2.08929C17.875 3.48214 18.5714 5.16667 18.5714 7.14286V10H20C20.7857 10 21.4583 10.2798 22.0179 10.8393C22.5774 11.3988 22.8571 12.0714 22.8571 12.8571V27.1429C22.8571 27.9286 22.5774 28.6012 22.0179 29.1607C21.4583 29.7202 20.7857 30 20 30H2.85714ZM11.4286 22.8571C12.2143 22.8571 12.8869 22.5774 13.4464 22.0179C14.006 21.4583 14.2857 20.7857 14.2857 20C14.2857 19.2143 14.006 18.5417 13.4464 17.9821C12.8869 17.4226 12.2143 17.1429 11.4286 17.1429C10.6429 17.1429 9.97024 17.4226 9.41072 17.9821C8.85119 18.5417 8.57143 19.2143 8.57143 20C8.57143 20.7857 8.85119 21.4583 9.41072 22.0179C9.97024 22.5774 10.6429 22.8571 11.4286 22.8571ZM7.14286 10H15.7143V7.14286C15.7143 5.95238 15.2976 4.94048 14.4643 4.10714C13.631 3.27381 12.619 2.85714 11.4286 2.85714C10.2381 2.85714 9.22619 3.27381 8.39286 4.10714C7.55952 4.94048 7.14286 5.95238 7.14286 7.14286V10Z" fill="#8B5CF6"/>
</svg>
