<svg width="30" height="30" viewBox="0 0 30 30" fill="none" xmlns="http://www.w3.org/2000/svg">
<path d="M15 16.6667C16.6111 16.6667 17.9861 16.0972 19.125 14.9583C20.2639 13.8194 20.8333 12.4444 20.8333 10.8333C20.8333 9.22222 20.2639 7.84722 19.125 6.70833C17.9861 5.56944 16.6111 5 15 5C13.3889 5 12.0139 5.56944 10.875 6.70833C9.73611 7.84722 9.16667 9.22222 9.16667 10.8333C9.16667 12.4444 9.73611 13.8194 10.875 14.9583C12.0139 16.0972 13.3889 16.6667 15 16.6667ZM3.33333 30C2.41667 30 1.63194 29.6736 0.979167 29.0208C0.326389 28.3681 0 27.5833 0 26.6667V3.33333C0 2.41667 0.326389 1.63194 0.979167 0.979167C1.63194 0.326389 2.41667 0 3.33333 0H26.6667C27.5833 0 28.3681 0.326389 29.0208 0.979167C29.6736 1.63194 30 2.41667 30 3.33333V26.6667C30 27.5833 29.6736 28.3681 29.0208 29.0208C28.3681 29.6736 27.5833 30 26.6667 30H3.33333ZM3.33333 26.6667H26.6667V24.75C25.1667 23.2778 23.4236 22.1181 21.4375 21.2708C19.4514 20.4236 17.3056 20 15 20C12.6944 20 10.5486 20.4236 8.5625 21.2708C6.57639 22.1181 4.83333 23.2778 3.33333 24.75V26.6667Z" fill="#8B5CF6"/>
</svg>
