<svg width="60" height="30" viewBox="0 0 60 30" fill="none" xmlns="http://www.w3.org/2000/svg">
<path d="M27 30H15C10.85 30 7.3125 28.5375 4.3875 25.6125C1.4625 22.6875 0 19.15 0 15C0 10.85 1.4625 7.3125 4.3875 4.3875C7.3125 1.4625 10.85 0 15 0H27V6H15C12.5 6 10.375 6.875 8.625 8.625C6.875 10.375 6 12.5 6 15C6 17.5 6.875 19.625 8.625 21.375C10.375 23.125 12.5 24 15 24H27V30ZM18 18V12H42V18H18ZM33 30V24H45C47.5 24 49.625 23.125 51.375 21.375C53.125 19.625 54 17.5 54 15C54 12.5 53.125 10.375 51.375 8.625C49.625 6.875 47.5 6 45 6H33V0H45C49.15 0 52.6875 1.4625 55.6125 4.3875C58.5375 7.3125 60 10.85 60 15C60 19.15 58.5375 22.6875 55.6125 25.6125C52.6875 28.5375 49.15 30 45 30H33Z" fill="#8B5CF6"/>
</svg>
