<svg width="30" height="30" viewBox="0 0 30 30" fill="none" xmlns="http://www.w3.org/2000/svg">
<path d="M20 30L10 26.5L2.25 29.5C1.69444 29.7222 1.18056 29.6597 0.708333 29.3125C0.236111 28.9653 0 28.5 0 27.9167V4.58333C0 4.22222 0.104167 3.90278 0.3125 3.625C0.520833 3.34722 0.805556 3.13889 1.16667 3L10 0L20 3.5L27.75 0.5C28.3056 0.277778 28.8194 0.340278 29.2917 0.6875C29.7639 1.03472 30 1.5 30 2.08333V25.4167C30 25.7778 29.8958 26.0972 29.6875 26.375C29.4792 26.6528 29.1944 26.8611 28.8333 27L20 30ZM18.3333 25.9167V6.41667L11.6667 4.08333V23.5833L18.3333 25.9167Z" fill="#8B5CF6"/>
</svg>
